# xmcd
#
# Track frame offsets:
#	150
#	11305
#	21437
#	43240
#	54365
#	68860
#	85675
#	93480
#	114177
#	127565
#	145070
#	154580
#	166247
#	178740
#
# Disc length: 2586 seconds
#
# Revision: 1
# Processed by: cddbd v1.5.1PL0 Copyright (c) Steve Scherf et al.
# Submitted via: CDex 1.50Beta5
#
DISCID=a40a180e
DTITLE=さまざまなアーティスト - NEXT STYLE PUNK ROCK
DYEAR=1900
DGENRE=
TTITLE0=向風/TAKE BACK
TTITLE1=向風/ひまわり
TTITLE2=SLUGGER/思い出涙ポロリ
TTITLE3=SLUGGER/ダンスフロアー
TTITLE4=SUN PEE/Reality and Limit
TTITLE5=SUNPEE/Tohoho the excusing
TTITLE6=一寸法師/夢がある限り
TTITLE7=一寸法師/命の花
TTITLE8=DYBY/GO AHEAD
TTITLE9=DYBY/光を浴びて
TTITLE10=中部トラック/大切な人
TTITLE11=中部トラック/バカ野郎
TTITLE12=クロスチョップ/少年太陽
TTITLE13=クロスチョップ/初恋
EXTD=
EXTT0=
EXTT1=
EXTT2=
EXTT3=
EXTT4=
EXTT5=
EXTT6=
EXTT7=
EXTT8=
EXTT9=
EXTT10=
EXTT11=
EXTT12=
EXTT13=
PLAYORDER=
